# xmcd
#
# Track frame offsets:
#	150
#	12493
#	22527
#	34671
#	48494
#	61231
#	71960
#	84525
#	98301
#	109504
#	118938
#	129726
#	141141
#	150787
#	161890
#	172200
#	182586
#	194107
#	206603
#	219538
#	234924
#	243878
#	258621
#	270614
#	280885
#	290247
#	300408
#	308659
#	318887
#	329696
#	340754
#	352282
#
# Disc length: 4847 seconds
#
# Revision: 0
# Processed by: cddbd v1.4PL0 Copyright (c) Steve Scherf et al.
# Submitted via: EasyCDDAExtractor 4.6.9.1
#
DISCID=dc12ed20
DTITLE=Ernest Tubb - Another Story - CD 2
DYEAR=1999
DGENRE=Country
TTITLE0=Ernest Tubb - Another Story - CD 2 - 01 - Loose Talk
TTITLE1=Ernest Tubb - Another Story - CD 2 - 02 - You Beat All I Ever Saw
TTITLE2=Ernest Tubb - Another Story - CD 2 - 03 - Apartment Number Nine
TTITLE3=Ernest Tubb - Another Story - CD 2 - 04 - I Never Had The One I Wanted
TTITLE4=Ernest Tubb - Another Story - CD 2 - 05 - Too Much Of Not Enough (Vers
TTITLE4=ion 1)
TTITLE5=Ernest Tubb - Another Story - CD 2 - 06 - Nothing Is Better Than You
TTITLE6=Ernest Tubb - Another Story - CD 2 - 07 - It Sure Helps A Lot
TTITLE7=Ernest Tubb - Another Story - CD 2 - 08 - Too Much Of Not Enough (Vers
TTITLE7=ion 2)
TTITLE8=Ernest Tubb - Another Story - CD 2 - 09 - Take These Chains From My He
TTITLE8=art
TTITLE9=Ernest Tubb - Another Story - CD 2 - 10 - I Can't Help It
TTITLE10=Ernest Tubb - Another Story - CD 2 - 11 - Hey Good Lookin
TTITLE11=Ernest Tubb - Another Story - CD 2 - 12 - I'm So Lonesome I Could Cry
TTITLE12=Ernest Tubb - Another Story - CD 2 - 13 - Window Shopping
TTITLE13=Ernest Tubb - Another Story - CD 2 - 14 - Someday You'll Call My Name
TTITLE14=Ernest Tubb - Another Story - CD 2 - 15 - I Could Never Be Ashamed Of
TTITLE14=You
TTITLE15=Ernest Tubb - Another Story - CD 2 - 16 - Mansion On The Hill
TTITLE16=Ernest Tubb - Another Story - CD 2 - 17 - Mind Your Business
TTITLE17=Ernest Tubb - Another Story - CD 2 - 18 - Your Cheatin Heart
TTITLE18=Ernest Tubb - Another Story - CD 2 - 19 - Cold Cold Heart
TTITLE19=Ernest Tubb - Another Story - CD 2 - 20 - Heart Of A Clown
TTITLE20=Ernest Tubb - Another Story - CD 2 - 21 - Won't You Ride In My Little
TTITLE20=Red Wagon
TTITLE21=Ernest Tubb - Another Story - CD 2 - 22 - I Act Just Like This All Th
TTITLE21=e Time
TTITLE22=Ernest Tubb - Another Story - CD 2 - 23 - Sing Me Back Home
TTITLE23=Ernest Tubb - Another Story - CD 2 - 24 - Tuxedo Junction (Instrument
TTITLE23=al)
TTITLE24=Ernest Tubb - Another Story - CD 2 - 25 - Nashville Shuffle (Instrume
TTITLE24=ntal)
TTITLE25=Ernest Tubb - Another Story - CD 2 - 26 - Ridgetop Stomp (Instrumenta
TTITLE25=l)
TTITLE26=Ernest Tubb - Another Story - CD 2 - 27 - Buddie's Boogie (Instrument
TTITLE26=al)
TTITLE27=Ernest Tubb - Another Story - CD 2 - 28 - If My Heart Had Windows
TTITLE28=Ernest Tubb - Another Story - CD 2 - 29 - I'm Gonna Make Like A Snake
TTITLE29=Ernest Tubb - Another Story - CD 2 - 30 - Ernest Tubb - Life Had Turn
TTITLE29=ed Her That Way
TTITLE30=Ernest Tubb - Another Story - CD 2 - 31 - Crying Time
TTITLE31=Ernest Tubb - Another Story - CD 2 - 32 - One More Memory
EXTD=
EXTT0=
EXTT1=
EXTT2=
EXTT3=
EXTT4=
EXTT5=
EXTT6=
EXTT7=
EXTT8=
EXTT9=
EXTT10=
EXTT11=
EXTT12=
EXTT13=
EXTT14=
EXTT15=
EXTT16=
EXTT17=
EXTT18=
EXTT19=
EXTT20=
EXTT21=
EXTT22=
EXTT23=
EXTT24=
EXTT25=
EXTT26=
EXTT27=
EXTT28=
EXTT29=
EXTT30=
EXTT31=
PLAYORDER=
